# xmcd CD database file
#
# Track frame offsets:
#	150
#	26202
#	46465
#	68350
#	93007
#	117510
#	137492
#	154787
#	168417
#	188050
#	210247
#	228902
#	255355
#	270192
#	289882
#
# Disc length: 4100 seconds
#
# Revision: 2
# Processed by: cddbd v1.5.2PL0 Copyright (c) Steve Scherf et al.
# Submitted via: CDex 1.70beta2
#
DISCID=be10020f
DTITLE=THE OLD MUSIC MASTERS - THE OLD MUSIC MASTERS
DYEAR=1995
DGENRE=Jazz
TTITLE0=MARTINIQUE
TTITLE1=THE OLD MUSIC MASTERS
TTITLE2=WHEN I GROW TOO OLD TO DREAM 
TTITLE3=WHAT YOU WANT ME TO DO
TTITLE4=CHANGE OF KEY BOOGIE
TTITLE5=GO DOWN TO NEW ORLEANS
TTITLE6=AUNT HAGAR'S BLUES
TTITLE7=BOHEMIA RAG
TTITLE8=WHISTLE WALK
TTITLE9=MY SMILING STAR
TTITLE10=MOOSE MARCH
TTITLE11=MARDI GRAS
TTITLE12=SHINE
TTITLE13=BOMBAY
TTITLE14=RUNNIN'  WILD
EXTD=YEAR: 1995
EXTT0=
EXTT1=
EXTT2=
EXTT3=
EXTT4=
EXTT5=
EXTT6=
EXTT7=
EXTT8=
EXTT9=
EXTT10=
EXTT11=
EXTT12=
EXTT13=
EXTT14=
PLAYORDER=
